<svg xmlns="http://www.w3.org/2000/svg" viewBox="0 0 95.4 96.7">
  <path d="M50,96.7c-11.6,0-22.7-4-31.8-11.5C8.2,76.9,1.9,65.4.4,52.7-2.3,30.3,10.4,8.7,31.4.3c1.7-.7,3.7-.2,5,1.2,1.2,1.4,1.4,3.5.5,5.1-4.6,7.9-6.4,16.9-5,25.9,2.9,19.8,20.7,34.8,40.7,34.2,5.8-.2,11.4-1.6,16.6-4.1,1.7-.8,3.7-.5,5.1.8,1.3,1.3,1.7,3.3.9,5-7.8,16.1-23.7,26.9-41.6,28.1-1.1,0-2.3.1-3.4.1ZM25.5,12.6C13.3,21.4,6.5,36.3,8.3,51.7c2.6,21.8,22.6,38.4,44.6,36.9,11.6-.8,22.2-6.4,29.4-15.1-3.1.7-6.4,1.2-9.6,1.2-24.3.7-45.3-16.9-48.8-41.1-1-7.2-.5-14.3,1.6-21.1ZM92.6,69.8h0s0,0,0,0c0,0,0,0,0,0Z"/>
</svg>