<svg xmlns="http://www.w3.org/2000/svg" viewBox="0 0 98.1 98.1">
  <path d="M49,70.9c-11.8,0-21.4-9.6-21.4-21.4s9.6-21.4,21.4-21.4,21.4,9.6,21.4,21.4-9.6,21.4-21.4,21.4ZM49,36.1c-7.4,0-13.4,6-13.4,13.4s6,13.4,13.4,13.4,13.4-6,13.4-13.4-6-13.4-13.4-13.4ZM53,18.1V4C53,1.9,51.2,0,49,0s-4,1.8-4,4v14.1c0,2.1,1.8,4.1,4,4s4-1.8,4-4h0ZM53,94.1v-14.1c0-2.1-1.8-4.1-4-4s-4,1.8-4,4v14.1c0,2.1,1.8,4.1,4,4s4-1.8,4-4h0ZM18.1,45.5c-4.1,0-8.2,0-12.3,0h-1.7c-2.1,0-4.1,1.8-4,4s1.8,4,4,4c4.1,0,8.2,0,12.3,0h1.7c2.1,0,4.1-1.8,4-4s-1.8-4-4-4h0ZM94.1,45.5c-4.1,0-8.2,0-12.3,0h-1.7c-2.1,0-4.1,1.8-4,4s1.8,4,4,4c4.1,0,8.2,0,12.3,0h1.7c2.1,0,4.1-1.8,4-4s-1.8-4-4-4h0ZM30,24.8c-2.9-2.9-5.8-5.8-8.7-8.7l-1.2-1.2c-1.5-1.5-4.2-1.6-5.7,0s-1.6,4.1,0,5.7c2.9,2.9,5.8,5.8,8.7,8.7l1.2,1.2c1.5,1.5,4.2,1.6,5.7,0s1.6-4.1,0-5.7h0ZM83.7,78.5c-2.9-2.9-5.8-5.8-8.7-8.7s-.8-.8-1.2-1.2c-1.5-1.5-4.2-1.6-5.7,0s-1.6,4.1,0,5.7c2.9,2.9,5.8,5.8,8.7,8.7s.8.8,1.2,1.2c1.5,1.5,4.2,1.6,5.7,0s1.6-4.1,0-5.7h0ZM73.8,30.4c2.9-2.9,5.8-5.8,8.7-8.7l1.2-1.2c1.5-1.5,1.6-4.2,0-5.7s-4.1-1.6-5.7,0c-2.9,2.9-5.8,5.8-8.7,8.7l-1.2,1.2c-1.5,1.5-1.6,4.2,0,5.7s4.1,1.6,5.7,0h0ZM20,84.2c2.9-2.9,5.8-5.8,8.7-8.7l1.2-1.2c1.5-1.5,1.6-4.2,0-5.7s-4.1-1.6-5.7,0c-2.9,2.9-5.8,5.8-8.7,8.7l-1.2,1.2c-1.5,1.5-1.6,4.2,0,5.7s4.1,1.6,5.7,0h0Z"/>
</svg>