<svg xmlns="http://www.w3.org/2000/svg" viewBox="0 0 250.9 89.4">
  <path d="M50.3,39.6v-2h.8v-2.1c-2-.6-3.5-2.6-3.5-4.8s1.2-3.7,2.9-4.5v-8h1v-2.9h.5l.2-9.7-12.5,2.9,1,52.8,10-2.6.4-19.1s-.8,0-.8,0ZM76,0l-22.7,5.3.2,9.9h.5v2.9h1v8c1.7.8,2.9,2.5,2.9,4.5s-1.5,4.2-3.5,4.8v2.1h.8v2h-.8l.4,18.1,6.2-5.1,4.9-7.1-1.9,13.9-23.3,17.7,2.8,4.7,6.8-5.8,4.7-4,15.8-10.6L76,0ZM22.9,15.2v2.9h1v8c1.7.8,2.9,2.5,2.9,4.5s-1.5,4.2-3.5,4.8v2.1h.8v2h-.8l.5,24,9.6-7.8-1.2-43.5-9.9-2.3v5.2h.6ZM34.9,65.8l-11.6,3.8-9.8,12.2,1.8-7.1,4.3-7.4.6-27.6h-.8v-2h.8v-2.1c-2-.6-3.5-2.6-3.5-4.8s1.2-3.7,2.9-4.5v-8h1v-2.9h.5v-5.5c.1,0-8.8-2.1-8.8-2.1L0,89.4l19.2-4.4,5.2-1.2,7.6-1.8,2.9-16.2ZM111,12.3h-5.1v13.9h-4.1v-13.9h-5v-3.2h14.2v3.2ZM127.8,26.2h-4.1v-7.1h-6.1v7.1h-4.1V9.1h4.1v6.8h6.1v-6.8h4.1v17.1ZM141.8,19h-6.5v4.1h7.6v3.2h-11.8V9.1h11.9v3.2h-7.7v3.6h6.5v3.1ZM155.2,23h-5.6l-1,3.2h-4.4l6.3-17.1h3.9l6.3,17.1h-4.4l-1.1-3.2ZM150.5,19.8h3.7l-1.8-5.9-1.9,5.9ZM174.7,12.3h-5.1v13.9h-4.1v-13.9h-5v-3.2h14.3v3.2h0ZM187.9,19h-6.5v4.1h7.6v3.2h-11.8V9.1h11.8v3.2h-7.7v3.6h6.5v3.1h0ZM197.9,20.2h-2.2v6h-4.1V9.1h6.7c2,0,3.6.4,4.7,1.3,1.1.9,1.7,2.2,1.7,3.8s-.2,2.2-.7,3-1.2,1.4-2.3,1.9l3.6,6.9v.2h-4.4l-3-6ZM195.7,17h2.6c.8,0,1.4-.2,1.8-.6.4-.4.6-1,.6-1.7s-.2-1.3-.6-1.7-1-.6-1.8-.6h-2.6v4.6ZM107.3,47h-5.6l-1,3.2h-4.4l6.3-17.1h3.9l6.3,17.1h-4.4l-1.1-3.2ZM102.6,43.8h3.7l-1.8-5.9-1.9,5.9ZM129,50.2h-4.1l-6-10.6v10.6h-4.1v-17.1h4.1l6,10.6v-10.6h4.1v17.1ZM145.8,36.3h-5.1v13.9h-4.1v-13.9h-5v-3.2h14.3v3.2h0ZM154.7,44.2h-2.2v6h-4.1v-17.1h6.7c2,0,3.6.4,4.7,1.3,1.1.9,1.7,2.2,1.7,3.8s-.2,2.2-.7,3-1.2,1.4-2.3,1.9l3.6,6.9v.2h-4.4l-3-6ZM152.5,41h2.6c.8,0,1.4-.2,1.8-.6.4-.4.6-1,.6-1.7s-.2-1.3-.6-1.7-1-.6-1.8-.6h-2.6v4.6ZM175.4,43h-6.4v4.1h7.6v3.2h-11.8v-17.2h11.8v3.2h-7.6v3.6h6.5v3.1h-.1ZM183.2,44.4v5.8h-4.1v-17.1h6.8c1.3,0,2.5.2,3.5.7s1.8,1.2,2.3,2.1.8,1.9.8,3c0,1.7-.6,3-1.8,4s-2.8,1.5-4.9,1.5h-2.6ZM183.2,41.2h2.7c.8,0,1.4-.2,1.8-.6s.6-1,.6-1.7-.2-1.4-.6-1.9-1-.7-1.8-.7h-2.7v4.9ZM201.9,44.2h-2.2v6h-4.1v-17.1h6.7c2,0,3.6.4,4.7,1.3,1.1.9,1.7,2.2,1.7,3.8s-.2,2.2-.7,3-1.2,1.4-2.3,1.9l3.6,6.9v.2h-4.4l-3-6ZM199.7,41h2.6c.8,0,1.4-.2,1.8-.6.4-.4.6-1,.6-1.7s-.2-1.3-.6-1.7-1-.6-1.8-.6h-2.6v4.6ZM216.4,50.2h-4.1v-17.1h4.1v17.1ZM224.7,47h8.2v3.2h-13.3v-2.2l8.1-11.7h-8.2v-3.2h13.3v2.1l-8.1,11.8ZM245.4,48h-5.6l-1,3.2-4.4-1,6.3-16.1h3.9l6.3,17.1h-4.4l-1.1-3.2ZM240.8,44.8h3.7l-1.8-5.9-1.9,5.9ZM97.6,74.2v-17.1h6.1c2.2,0,3.9.4,5,1.2s1.7,2,1.7,3.5-.2,1.6-.6,2.3c-.4.6-1,1.1-1.8,1.4.9.2,1.6.7,2.1,1.3s.7,1.4.7,2.3c0,1.7-.5,2.9-1.6,3.8s-2.6,1.3-4.7,1.3c0,0-6.9,0-6.9,0ZM101.7,64.2h2.1c.9,0,1.5-.2,1.9-.5s.6-.8.6-1.4-.2-1.2-.6-1.6c-.4-.3-1.1-.5-2-.5h-2v4ZM101.7,66.9v4.1h2.7c.7,0,1.3-.2,1.7-.5s.6-.8.6-1.4c0-1.4-.7-2.1-2.1-2.1h-2.9ZM124.5,67h-6.5v4.1h7.6v3.2h-11.8v-17.2h11.8v3.2h-7.6v3.6h6.5v3.1ZM134.5,68.2h-2.2v6h-4.1v-17.1h6.7c2,0,3.6.4,4.7,1.3,1.1.9,1.7,2.2,1.7,3.8s-.2,2.2-.7,3-1.2,1.4-2.3,1.9l3.6,6.9v.2h-4.4l-3-6ZM132.3,65h2.6c.8,0,1.4-.2,1.8-.6.4-.4.6-1,.6-1.7s-.2-1.3-.6-1.7-1-.6-1.8-.6h-2.6v4.6ZM148.7,71h7.2v3.2h-11.3v-17.1h4.1v13.9ZM162.9,74.2h-4.1v-17.1h4.1v17.1ZM180.8,74.2h-4.1l-6-10.6v10.6h-4.1v-17.1h4.1l6,10.6v-10.6h4.1v17.1Z"/>
</svg>