<svg xmlns="http://www.w3.org/2000/svg" viewBox="0 0 20 20">
  <path d="M10,20c-1.4,0-2.7-0.3-3.9-0.8c-1.2-0.5-2.3-1.2-3.2-2.1s-1.6-2-2.2-3.2S0,11.4,0,10c0-1.4,0.3-2.7,0.8-3.9S2,3.8,2.9,2.9
    s2-1.6,3.2-2.2S8.6,0,10,0c1.4,0,2.7,0.3,3.9,0.8s2.3,1.2,3.2,2.2s1.6,2,2.1,3.2C19.7,7.3,20,8.6,20,10c0,1.4-0.3,2.7-0.8,3.9
    c-0.5,1.2-1.2,2.3-2.1,3.2s-2,1.6-3.2,2.1C12.7,19.7,11.4,20,10,20z M10,18c0.4-0.6,0.8-1.2,1.1-1.9c0.3-0.7,0.6-1.3,0.8-2.1H8.1
    c0.2,0.7,0.5,1.4,0.8,2.1C9.2,16.7,9.6,17.4,10,18z M7.4,17.6c-0.3-0.6-0.6-1.1-0.8-1.7c-0.2-0.6-0.4-1.2-0.6-1.8h-3
    c0.5,0.8,1.1,1.6,1.8,2.2C5.6,16.8,6.5,17.2,7.4,17.6z M12.6,17.6c0.9-0.3,1.8-0.8,2.5-1.4c0.7-0.6,1.3-1.3,1.8-2.2h-2.9
    c-0.1,0.6-0.3,1.2-0.6,1.8C13.2,16.4,12.9,17,12.6,17.6z M2.2,12h3.4c-0.1-0.3-0.1-0.7-0.1-1c0-0.3,0-0.7,0-1c0-0.3,0-0.7,0-1
    c0-0.3,0.1-0.7,0.1-1H2.2C2.2,8.3,2.1,8.7,2.1,9S2,9.7,2,10c0,0.4,0,0.7,0.1,1C2.1,11.3,2.2,11.7,2.2,12z M7.7,12h4.7
    c0.1-0.3,0.1-0.7,0.1-1c0-0.3,0-0.7,0-1c0-0.3,0-0.7,0-1c0-0.3-0.1-0.7-0.1-1H7.7C7.6,8.3,7.6,8.7,7.5,9c0,0.3,0,0.7,0,1
    c0,0.4,0,0.7,0,1C7.6,11.3,7.6,11.7,7.7,12z M14.4,12h3.4c0.1-0.3,0.1-0.7,0.2-1c0-0.3,0.1-0.7,0.1-1c0-0.3,0-0.7-0.1-1
    c0-0.3-0.1-0.7-0.2-1h-3.4c0.1,0.3,0.1,0.7,0.1,1c0,0.3,0,0.7,0,1c0,0.4,0,0.7,0,1C14.4,11.3,14.4,11.7,14.4,12z M13.9,6h2.9
    c-0.5-0.8-1.1-1.6-1.8-2.2c-0.7-0.6-1.6-1.1-2.5-1.4c0.3,0.5,0.6,1.1,0.8,1.7C13.6,4.8,13.8,5.4,13.9,6z M8.1,6h3.8
    c-0.2-0.7-0.5-1.4-0.8-2.1C10.8,3.3,10.4,2.7,10,2C9.6,2.7,9.2,3.3,8.9,3.9S8.3,5.3,8.1,6z M3.1,6h3c0.2-0.6,0.3-1.2,0.6-1.8
    S7.1,3,7.4,2.5C6.5,2.8,5.6,3.2,4.9,3.8S3.6,5.2,3.1,6z"/>
</svg>