<svg xmlns="http://www.w3.org/2000/svg" viewBox="0 0 99 99">
	<path d="M81,99H18c-9.9,0-18-8.1-18-18V18C0,8.1,8.1,0,18,0h63c9.9,0,18,8.1,18,18v63c0,9.9-8.1,18-18,18ZM18,6c-6.6,0-12,5.4-12,12v63c0,6.6,5.4,12,12,12h63c6.6,0,12-5.4,12-12V18c0-6.6-5.4-12-12-12H18ZM49.2,76.4c-13.8,0-25-11.2-25-25s11.2-25,25-25,25,11.2,25,25-11.2,25-25,25ZM49.2,32.4c-10.5,0-19,8.5-19,19s8.5,19,19,19,19-8.5,19-19-8.5-19-19-19ZM77.7,29.4c-4.4,0-8-3.6-8-8s3.6-8,8-8,8,3.6,8,8-3.6,8-8,8ZM77.7,19.4c-1.1,0-2,.9-2,2s.9,2,2,2,2-.9,2-2-.9-2-2-2Z"/>
</svg>
