<svg xmlns="http://www.w3.org/2000/svg" viewBox="0 0 266.9 89.4">
  <path d="M50.3,39.7v-2h.8v-2.1c-2-.6-3.5-2.6-3.5-4.8s1.2-3.7,2.9-4.5v-8h1v-2.9h.5l.2-9.7-12.5,2.8,1,52.8,10-2.6.4-19.1h-.8ZM76,0l-22.8,5.4.2,9.9h.5v2.9h1v8c1.7.8,2.9,2.5,2.9,4.5s-1.5,4.2-3.5,4.8v2.1h.8v2h-.8l.4,18.1,6.2-5.1,4.9-7.1-1.9,13.7-23.2,17.8,2.8,4.7,6.8-5.8,4.7-4,15.8-10.6L76,0ZM22.9,15.3v2.9h1v8c1.7.8,2.9,2.5,2.9,4.5s-1.5,4.2-3.5,4.8v2.1h.8v2h-.7l.5,24,9.6-7.8-1.2-43.5-9.9-2.3v5.2h.5ZM34.8,65.8l-11.6,3.8-9.8,12.2,1.8-7.1,4.3-7.4.6-27.6h-.7v-2h.8v-2.1c-2-.6-3.5-2.6-3.5-4.8s1.2-3.7,2.9-4.5v-8h1v-2.9h.5v-5.5c.1,0-8.8-2.1-8.8-2.1L0,89.4l19.1-4.4,5.2-1.2,7.6-1.8,2.9-16.2ZM116,14.3h-5.1v13.9h-4.1v-13.9h-5v-3.2h14.3v3.2h-.1ZM129.1,21h-6.5v4.1h7.6v3.2h-11.8V11.2h11.8v3.2h-7.7v3.6h6.5v3h0ZM142.5,25h-5.6l-1,3.2h-4.4l6.3-17.1h3.9l6.3,17.1h-4.4l-1.1-3.2ZM137.8,21.9h3.7l-1.8-5.9-1.9,5.9ZM163.4,14.3h-5.1v13.9h-4.1v-13.9h-5v-3.2h14.2v3.2ZM170,22.4v5.8h-4.1V11.2h6.8c1.3,0,2.5.2,3.5.7s1.8,1.2,2.3,2.1.8,1.9.8,3c0,1.7-.6,3-1.8,4s-2.8,1.5-4.9,1.5h-2.6ZM170,19.3h2.7c.8,0,1.4-.2,1.8-.6s.6-1,.6-1.7-.2-1.4-.6-1.9-1-.7-1.8-.7h-2.7v4.9ZM112.3,49h-5.6l-1,3.2h-4.4l6.3-17.1h3.9l6.3,17.1h-4.4l-1.1-3.2ZM107.6,45.9h3.7l-1.9-5.9-1.8,5.9ZM134,52.2h-4.1v-7.1h-6.1v7.1h-4.1v-17h4.1v6.8h6.1v-6.8h4.1v17ZM150.8,38.3h-5.1v13.9h-4.1v-13.9h-5v-3.2h14.3v3.2h0ZM157.5,46.4v5.8h-4.1v-17h6.8c1.3,0,2.5.2,3.5.7s1.8,1.2,2.3,2.1.8,1.9.8,3c0,1.7-.6,3-1.8,4s-2.8,1.5-4.9,1.5h-2.6ZM157.5,43.3h2.7c.8,0,1.4-.2,1.8-.6s.6-1,.6-1.7-.2-1.4-.6-1.9-1-.7-1.8-.7h-2.7v4.9ZM180.4,45h-6.5v4.1h7.6v3.2h-11.8v-17.1h11.8v3.2h-7.7v3.6h6.5v3h0ZM198.5,52.2h-4.1v-13.9h-6.1v13.9h-4.1v-17h14.4v17h0ZM206,46.4v5.8h-4.1v-17h6.8c1.3,0,2.5.2,3.5.7s1.8,1.2,2.3,2.1.8,1.9.8,3c0,1.7-.6,3-1.8,4s-2.8,1.5-4.9,1.5h-2.6ZM206,43.3h2.7c.8,0,1.4-.2,1.8-.6s.6-1,.6-1.7-.2-1.4-.6-1.9-1-.7-1.8-.7h-2.7v4.9ZM228.3,35.2h4.1v17.1h-4.1v-10.8l-6.1,10.8h-4.1v-17.1h4.1v10.8l6.1-10.8ZM244.1,39.9c0-.5-.2-1-.6-1.3s-1-.5-1.7-.5-1.2.2-1.6.5-.6.7-.6,1.2h-4.1c0-.9.3-1.8.8-2.5s1.3-1.3,2.3-1.7,2.1-.6,3.2-.6c2,0,3.6.4,4.7,1.3s1.7,2,1.7,3.6-.2,1.5-.7,2.1-1.1,1.2-1.9,1.5c.9.3,1.6.8,2.1,1.5s.7,1.5.7,2.5c0,1.5-.6,2.7-1.8,3.7s-2.8,1.4-4.9,1.4-3.4-.4-4.7-1.3-1.9-2.1-1.9-3.6h4.1c0,.5.2.9.7,1.3s1,.5,1.7.5,1.4-.2,1.9-.5.7-.8.7-1.4-.2-1.4-.6-1.8c-.4-.3-1-.5-1.8-.5h-2.2v-3h2.3c1.5-.3,2.2-1,2.2-2.4ZM261.4,49h-5.6l-1,3.2h-4.4l6.3-17.1h3.9l6.3,17.1h-4.5l-1-3.2ZM256.7,45.9h3.7l-1.8-5.9-1.9,5.9ZM114.1,62.3h-7.4v2.7h2.1c1.4,0,2.5.2,3.6.7s1.8,1.1,2.4,2,.8,1.8.8,2.9c0,1.7-.6,3-1.9,4.1s-2.9,1.6-5,1.6h-6.2v-17.1h11.5v3.1h0ZM106.7,68.2v4.9h2.1c.8,0,1.5-.2,2-.7s.7-1.1.7-1.8-.2-1.3-.7-1.7-1.2-.6-2-.6h-2.1ZM129,69h-6.5v4.1h7.6v3.2h-11.7v-17.1h11.8v3.2h-7.7v3.6h6.5v3ZM136.8,70.4v5.8h-4.1v-17h6.8c1.3,0,2.5.2,3.5.7s1.8,1.2,2.3,2.1.8,1.9.8,3c0,1.7-.6,3-1.8,4s-2.8,1.5-4.9,1.5h-2.6ZM136.8,67.3h2.7c.8,0,1.4-.2,1.8-.6s.6-1,.6-1.7-.2-1.4-.6-1.9-1-.7-1.8-.7h-2.7v4.9ZM163.5,59.2v17.1h-4.1v-14h-3.8l-.3,5.7c-.1,2-.4,3.6-.8,4.7s-1,2-1.8,2.6-1.9.8-3.2.8h-1.1v-3.2h.6c.8-.2,1.4-.7,1.8-1.6s.6-2.4.7-4.5l.3-7.9h11.7v.3ZM176.9,59.2h4.1v17.1h-4.1v-10.8l-6.1,10.8h-4.1v-17.1h4.1v10.8l6.1-10.8ZM198.6,76.2h-4.1v-7.1h-6.1v7.1h-4.1v-17h4.1v6.8h6.1v-6.8h4.1v17Z"/>
</svg>
