<?xml version="1.0" encoding="UTF-8"?>
<svg id="favicon" data-name="favicon" xmlns="http://www.w3.org/2000/svg" viewBox="0 0 491.67 577.97">
  <path fill="#e30d15" d="m325.43,256.57v-12.94h5.47l.31-13.79c-13.2-4.16-22.77-16.49-22.77-31.06,0-12.95,7.58-24.11,18.53-29.35v-51.9h6.58v-18.86h2.96l1.11-62.49-80.86,18.99,6.32,341.33,64.78-16.5,2.75-123.43h-5.18Z"/>
  <path fill="#e30d15" d="m491.67,0l-147.3,34.59,1.14,64.07h2.96v18.86h6.58v51.9c10.95,5.25,18.53,16.4,18.53,29.35,0,14.57-9.57,26.9-22.77,31.06l.31,13.79h5.47v12.94h-5.18l2.6,116.78,39.9-33.1,31.9-45.69-12.07,88.8-150.64,114.6,18.22,30.67,44.09-37.58,30.64-26.12,102.09-68.41L491.67,0Z"/>
  <path fill="#e30d15" d="m148.24,98.66v18.86h6.58v51.9c10.95,5.25,18.53,16.4,18.53,29.35,0,14.57-9.57,26.9-22.77,31.06l.31,13.79h5.47v12.94h-5.18l3.46,155.41,61.79-50.55-8.06-281.54-63.69-14.96.6,33.73h2.96Z"/>
  <path fill="#e30d15" d="m225.35,425.38l-75.01,24.57-63.37,78.67,11.64-45.69,27.79-47.85,3.97-178.5h-5.18v-12.94h5.47l.31-13.79c-13.2-4.16-22.77-16.49-22.77-31.06,0-12.95,7.58-24.11,18.53-29.35v-51.9h6.58v-18.86h2.96l.63-35.56-57.54-13.51L0,577.97l123.87-28.51,33.66-7.75,49.39-11.37,18.44-104.96Z"/>
</svg>