<?xml version="1.0" encoding="UTF-8"?>
<svg id="favicon" data-name="favicon" xmlns="http://www.w3.org/2000/svg" version="1.1" viewBox="0 0 620 620">
  <path fill="#e30d15" d="M389.6,277.6v-12.9h5.5l.3-13.8c-13.2-4.2-22.8-16.5-22.8-31.1s7.6-24.1,18.5-29.4v-51.9h6.6v-18.9h3l1.1-62.5-80.9,19,6.3,341.3,64.8-16.5,2.8-123.4h-5.2,0Z"/>
  <path fill="#e30d15" d="M555.8,21l-147.3,34.6,1.1,64.1h3v18.9h6.6v51.9c11,5.2,18.5,16.4,18.5,29.4s-9.6,26.9-22.8,31.1l.3,13.8h5.5v12.9h-5.2l2.6,116.8,39.9-33.1,31.9-45.7-12.1,88.8-150.6,114.6,18.2,30.7,44.1-37.6,30.6-26.1,102.1-68.4,33.5-396.5Z"/>
  <path fill="#e30d15" d="M212.4,119.7v18.9h6.6v51.9c10.9,5.2,18.5,16.4,18.5,29.4s-9.6,26.9-22.8,31.1l.3,13.8h5.5v12.9h-5.2l3.5,155.4,61.8-50.5-8.1-281.5-63.7-15,.6,33.7h3,0Z"/>
  <path fill="#e30d15" d="M289.5,446.4l-75,24.6-63.4,78.7,11.6-45.7,27.8-47.9,4-178.5h-5.2v-12.9h5.5l.3-13.8c-13.2-4.2-22.8-16.5-22.8-31.1s7.6-24.1,18.5-29.4v-51.9h6.6v-18.9h3l.6-35.6-57.5-13.5-79.4,528.4,123.9-28.5,33.7-7.8,49.4-11.4,18.4-105h0Z"/>
</svg>