<svg display="none" xmlns="http://www.w3.org/2000/svg">
	<symbol id="logo" viewBox="0 0 34.2 40.2">
		<g>
      <path d="M22.6,17.9V17H23v-1c-0.9-0.3-1.6-1.1-1.6-2.2c0-0.9,0.5-1.7,1.3-2V8.2h0.5V6.9h0.2l0.1-4.3l-5.6,1.3l0.4,23.8
        l4.5-1.1L23,18L22.6,17.9L22.6,17.9z"/>
      <path d="M34.2,0L24,2.4v4.5h0.2v1.3h0.5v3.6c0.8,0.4,1.3,1.1,1.3,2c0,1-0.7,1.9-1.6,2.2v1h0.4v0.9h-0.4l0.2,8.1
        l2.8-2.3l2.2-3.2l-0.8,6.2l-10.5,8l1.3,2.1l3.1-2.6l2.1-1.8l7.1-4.8L34.2,0z"/>
      <path d="M10.3,6.9v1.3h0.5v3.6c0.8,0.4,1.3,1.1,1.3,2c0,1-0.7,1.9-1.6,2.2v1h0.4v0.9h-0.4l0.2,10.8l4.3-3.5L14.5,5.6
        l-4.4-1v2.3C10.1,6.9,10.3,6.9,10.3,6.9z"/>
      <path d="M15.7,29.6l-5.2,1.7l-4.4,5.5l0.8-3.2l1.9-3.3l0.3-12.4H8.7V17h0.4v-1c-0.9-0.3-1.6-1.1-1.6-2.2
        c0-0.9,0.5-1.7,1.3-2V8.2h0.5V6.9h0.2V4.4l-4-0.9L0,40.2l8.6-2l2.3-0.5l3.4-0.8L15.7,29.6z"/>
    </g>		
	</symbol>

	<symbol id="logo-text-de" viewBox="0 0 250.9 89">
		<g>
      <path d="M50.3,39.2v-2h0.8l0-2.1c-2-0.6-3.5-2.6-3.5-4.8c0-2,1.2-3.7,2.9-4.5v-8h1v-2.9H52l0.2-9.7L39.7,8.1l1,52.8l10-2.6
        l0.4-19.1H50.3z"/>
      <path d="M76-0.4L53.3,4.9l0.2,9.9h0.5v2.9h1v8c1.7,0.8,2.9,2.5,2.9,4.5c0,2.3-1.5,4.2-3.5,4.8l0,2.1h0.8v2h-0.8l0.4,18.1l6.2-5.1
        l4.9-7.1L64,58.9L40.7,76.6l2.8,4.7l6.8-5.8l4.7-4l15.8-10.6L76-0.4z"/>
      <path d="M22.9,14.8v2.9h1v8c1.7,0.8,2.9,2.5,2.9,4.5c0,2.3-1.5,4.2-3.5,4.8l0,2.1h0.8v2h-0.8l0.5,24l9.6-7.8l-1.2-43.5l-9.9-2.3
        l0.1,5.2H22.9z"/>
      <path d="M34.9,65.4l-11.6,3.8l-9.8,12.2l1.8-7.1l4.3-7.4l0.6-27.6h-0.8v-2h0.8l0-2.1c-2-0.6-3.5-2.6-3.5-4.8c0-2,1.2-3.7,2.9-4.5
        v-8h1v-2.9h0.5l0.1-5.5l-8.9-2.1L0,89l19.2-4.4l5.2-1.2l7.6-1.8L34.9,65.4z"/>

			<path d="M111,11.9h-5.1v13.9h-4.1V11.9h-5V8.7H111V11.9z"/>
			<path d="M127.8,25.8h-4.1v-7.1h-6.1v7.1h-4.1V8.7h4.1v6.8h6.1V8.7h4.1V25.8z"/>
			<path d="M141.8,18.6h-6.5v4.1h7.6v3.2h-11.8V8.7H143v3.2h-7.7v3.6h6.5V18.6z"/>
			<path d="M155.2,22.6h-5.6l-1,3.2h-4.4l6.3-17.1h3.9l6.3,17.1h-4.4L155.2,22.6z M150.5,19.4h3.7l-1.8-5.9L150.5,19.4z"/>
			<path d="M174.7,11.9h-5.1v13.9h-4.1V11.9h-5V8.7h14.3V11.9z"/>
			<path d="M187.9,18.6h-6.5v4.1h7.6v3.2h-11.8V8.7h11.8v3.2h-7.7v3.6h6.5V18.6z"/>
			<path d="M197.9,19.8h-2.2v6h-4.1V8.7h6.7c2,0,3.6,0.4,4.7,1.3c1.1,0.9,1.7,2.2,1.7,3.8c0,1.2-0.2,2.2-0.7,3s-1.2,1.4-2.3,1.9
				l3.6,6.9v0.2h-4.4L197.9,19.8z M195.7,16.6h2.6c0.8,0,1.4-0.2,1.8-0.6c0.4-0.4,0.6-1,0.6-1.7s-0.2-1.3-0.6-1.7s-1-0.6-1.8-0.6
				h-2.6V16.6z"/>

			<path d="M107.3,46.6h-5.6l-1,3.2h-4.4l6.3-17.1h3.9l6.3,17.1h-4.4L107.3,46.6z M102.6,43.4h3.7l-1.8-5.9L102.6,43.4z"/>
			<path d="M129,49.8h-4.1l-6-10.6v10.6h-4.1V32.7h4.1l6,10.6V32.7h4.1V49.8z"/>
			<path d="M145.8,35.9h-5.1v13.9h-4.1V35.9h-5v-3.2h14.3V35.9z"/>
			<path d="M154.7,43.8h-2.2v6h-4.1V32.7h6.7c2,0,3.6,0.4,4.7,1.3c1.1,0.9,1.7,2.2,1.7,3.8c0,1.2-0.2,2.2-0.7,3s-1.2,1.4-2.3,1.9
				l3.6,6.9v0.2h-4.4L154.7,43.8z M152.5,40.6h2.6c0.8,0,1.4-0.2,1.8-0.6c0.4-0.4,0.6-1,0.6-1.7s-0.2-1.3-0.6-1.7s-1-0.6-1.8-0.6
				h-2.6V40.6z"/>
			<path d="M175.4,42.6H169v4.1h7.6v3.2h-11.8V32.7h11.8v3.2H169v3.6h6.5V42.6z"/>
			<path d="M183.2,44v5.8h-4.1V32.7h6.8c1.3,0,2.5,0.2,3.5,0.7s1.8,1.2,2.3,2.1s0.8,1.9,0.8,3c0,1.7-0.6,3-1.8,4s-2.8,1.5-4.9,1.5
				H183.2z M183.2,40.8h2.7c0.8,0,1.4-0.2,1.8-0.6s0.6-1,0.6-1.7c0-0.8-0.2-1.4-0.6-1.9s-1-0.7-1.8-0.7h-2.7V40.8z"/>
			<path d="M201.9,43.8h-2.2v6h-4.1V32.7h6.7c2,0,3.6,0.4,4.7,1.3c1.1,0.9,1.7,2.2,1.7,3.8c0,1.2-0.2,2.2-0.7,3s-1.2,1.4-2.3,1.9
				l3.6,6.9v0.2h-4.4L201.9,43.8z M199.7,40.6h2.6c0.8,0,1.4-0.2,1.8-0.6c0.4-0.4,0.6-1,0.6-1.7s-0.2-1.3-0.6-1.7s-1-0.6-1.8-0.6
				h-2.6V40.6z"/>
			<path d="M216.4,49.8h-4.1V32.7h4.1V49.8z"/>
			<path d="M224.7,46.6h8.2v3.2h-13.3v-2.2l8.1-11.7h-8.2v-3.2h13.3v2.1L224.7,46.6z"/>
			<path d="M245.4,47.6h-5.6l-1,3.2l-4.4-1l6.3-16.1h3.9l6.3,17.1h-4.4L245.4,47.6z M240.8,44.4h3.7l-1.8-5.9L240.8,44.4z"/>

      <path d="M97.6,73.8V56.7h6.1c2.2,0,3.9,0.4,5,1.2s1.7,2,1.7,3.5c0,0.9-0.2,1.6-0.6,2.3c-0.4,0.6-1,1.1-1.8,1.4
        c0.9,0.2,1.6,0.7,2.1,1.3s0.7,1.4,0.7,2.3c0,1.7-0.5,2.9-1.6,3.8s-2.6,1.3-4.7,1.3H97.6z M101.7,63.8h2.1c0.9,0,1.5-0.2,1.9-0.5
        c0.4-0.3,0.6-0.8,0.6-1.4c0-0.7-0.2-1.2-0.6-1.6c-0.4-0.3-1.1-0.5-2-0.5h-2V63.8z M101.7,66.5v4.1h2.7c0.7,0,1.3-0.2,1.7-0.5
        s0.6-0.8,0.6-1.4c0-1.4-0.7-2.1-2.1-2.1H101.7z"/>
      <path d="M124.5,66.6H118v4.1h7.6v3.2h-11.8V56.7h11.8v3.2H118v3.6h6.5V66.6z"/>
      <path d="M134.5,67.8h-2.2v6h-4.1V56.7h6.7c2,0,3.6,0.4,4.7,1.3c1.1,0.9,1.7,2.2,1.7,3.8c0,1.2-0.2,2.2-0.7,3s-1.2,1.4-2.3,1.9
        l3.6,6.9v0.2h-4.4L134.5,67.8z M132.3,64.6h2.6c0.8,0,1.4-0.2,1.8-0.6c0.4-0.4,0.6-1,0.6-1.7s-0.2-1.3-0.6-1.7s-1-0.6-1.8-0.6
        h-2.6V64.6z"/>
      <path d="M148.7,70.6h7.2v3.2h-11.3V56.7h4.1V70.6z"/>
      <path d="M162.9,73.8h-4.1V56.7h4.1V73.8z"/>
      <path d="M180.8,73.8h-4.1l-6-10.6v10.6h-4.1V56.7h4.1l6,10.6V56.7h4.1V73.8z"/>
  </g>		
	</symbol>

	<symbol id="logo-text-ru" viewBox="0 0 268.9 89.4">
		<g>
      <path d="M51.9,39.7v-2h0.8l0-2.1c-2-0.6-3.5-2.6-3.5-4.8c0-2,1.2-3.7,2.9-4.5v-8h1v-2.9h0.5l0.2-9.7L41.3,8.5l1,52.8l10-2.6
        l0.4-19.1H51.9z"/>
      <path d="M77.6,0L54.8,5.4l0.2,9.9h0.5v2.9h1v8c1.7,0.8,2.9,2.5,2.9,4.5c0,2.3-1.5,4.2-3.5,4.8l0,2.1h0.8v2h-0.8l0.4,18.1l6.2-5.1
        l4.9-7.1l-1.9,13.7L42.3,77l2.8,4.7l6.8-5.8l4.7-4l15.8-10.6L77.6,0z"/>
      <path d="M24.5,15.3v2.9h1v8c1.7,0.8,2.9,2.5,2.9,4.5c0,2.3-1.5,4.2-3.5,4.8l0,2.1h0.8v2H25l0.5,24l9.6-7.8l-1.2-43.5L24,10l0.1,5.2
        H24.5z"/>
      <path d="M36.4,65.8l-11.6,3.8L15,81.8l1.8-7.1l4.3-7.4l0.6-27.6H21v-2h0.8l0-2.1c-2-0.6-3.5-2.6-3.5-4.8c0-2,1.2-3.7,2.9-4.5v-8h1
        v-2.9h0.5l0.1-5.5l-8.9-2.1L1.6,89.4L20.7,85l5.2-1.2l7.6-1.8L36.4,65.8z"/>
      <path d="M117.6,14.3h-5.1v13.9h-4.1V14.3h-5v-3.2h14.3V14.3z"/>
      <path d="M130.7,21h-6.5v4.1h7.6v3.2h-11.8V11.2h11.8v3.2h-7.7v3.6h6.5V21z"/>
      <path d="M144.1,25h-5.6l-1,3.2h-4.4l6.3-17.1h3.9l6.3,17.1h-4.4L144.1,25z M139.4,21.9h3.7l-1.8-5.9L139.4,21.9z"/>
      <path d="M165,14.3h-5.1v13.9h-4.1V14.3h-5v-3.2H165V14.3z"/>
      <path d="M171.6,22.4v5.8h-4.1V11.2h6.8c1.3,0,2.5,0.2,3.5,0.7s1.8,1.2,2.3,2.1s0.8,1.9,0.8,3c0,1.7-0.6,3-1.8,4s-2.8,1.5-4.9,1.5
        H171.6z M171.6,19.3h2.7c0.8,0,1.4-0.2,1.8-0.6s0.6-1,0.6-1.7c0-0.8-0.2-1.4-0.6-1.9s-1-0.7-1.8-0.7h-2.7V19.3z"/>
      <path d="M113.9,49h-5.6l-1,3.2h-4.4l6.3-17.1h3.9l6.3,17.1h-4.4L113.9,49z M109.2,45.9h3.7L111,40L109.2,45.9z"/>
      <path d="M135.6,52.2h-4.1v-7.1h-6.1v7.1h-4.1V35.2h4.1v6.8h6.1v-6.8h4.1V52.2z"/>
      <path d="M152.4,38.3h-5.1v13.9h-4.1V38.3h-5v-3.2h14.3V38.3z"/>
      <path d="M159.1,46.4v5.8H155V35.2h6.8c1.3,0,2.5,0.2,3.5,0.7s1.8,1.2,2.3,2.1s0.8,1.9,0.8,3c0,1.7-0.6,3-1.8,4s-2.8,1.5-4.9,1.5
        H159.1z M159.1,43.3h2.7c0.8,0,1.4-0.2,1.8-0.6s0.6-1,0.6-1.7c0-0.8-0.2-1.4-0.6-1.9s-1-0.7-1.8-0.7h-2.7V43.3z"/>
      <path d="M182,45h-6.5v4.1h7.6v3.2h-11.8V35.2h11.8v3.2h-7.7v3.6h6.5V45z"/>
      <path d="M200.1,52.2h-4.1V38.3h-6.1v13.9h-4.1V35.2h14.4V52.2z"/>
      <path d="M207.6,46.4v5.8h-4.1V35.2h6.8c1.3,0,2.5,0.2,3.5,0.7s1.8,1.2,2.3,2.1s0.8,1.9,0.8,3c0,1.7-0.6,3-1.8,4s-2.8,1.5-4.9,1.5
        H207.6z M207.6,43.3h2.7c0.8,0,1.4-0.2,1.8-0.6s0.6-1,0.6-1.7c0-0.8-0.2-1.4-0.6-1.9s-1-0.7-1.8-0.7h-2.7V43.3z"/>
      <path d="M229.9,35.2h4.1v17.1h-4.1V41.5l-6.1,10.8h-4.1V35.2h4.1v10.8L229.9,35.2z"/>
      <path d="M245.7,39.9c0-0.5-0.2-1-0.6-1.3s-1-0.5-1.7-0.5c-0.7,0-1.2,0.2-1.6,0.5s-0.6,0.7-0.6,1.2h-4.1c0-0.9,0.3-1.8,0.8-2.5
        s1.3-1.3,2.3-1.7s2.1-0.6,3.2-0.6c2,0,3.6,0.4,4.7,1.3s1.7,2,1.7,3.6c0,0.8-0.2,1.5-0.7,2.1s-1.1,1.2-1.9,1.5
        c0.9,0.3,1.6,0.8,2.1,1.5s0.7,1.5,0.7,2.5c0,1.5-0.6,2.7-1.8,3.7s-2.8,1.4-4.9,1.4c-1.9,0-3.4-0.4-4.7-1.3s-1.9-2.1-1.9-3.6h4.1
        c0,0.5,0.2,0.9,0.7,1.3s1,0.5,1.7,0.5c0.8,0,1.4-0.2,1.9-0.5s0.7-0.8,0.7-1.4c0-0.8-0.2-1.4-0.6-1.8c-0.4-0.3-1-0.5-1.8-0.5h-2.2
        v-3h2.3C245,42,245.7,41.3,245.7,39.9z"/>
      <path d="M263,49h-5.6l-1,3.2H252l6.3-17.1h3.9l6.3,17.1H264L263,49z M258.3,45.9h3.7l-1.8-5.9L258.3,45.9z"/>
      
      <path d="M115.7,62.3h-7.4V65h2.1c1.4,0,2.5,0.2,3.6,0.7s1.8,1.1,2.4,2s0.8,1.8,0.8,2.9c0,1.7-0.6,3-1.9,4.1s-2.9,1.6-5,1.6h-6.2
        V59.2h11.5V62.3z M108.3,68.2v4.9h2.1c0.8,0,1.5-0.2,2-0.7s0.7-1.1,0.7-1.8c0-0.7-0.2-1.3-0.7-1.7s-1.2-0.6-2-0.6H108.3z"/>
      <path d="M130.6,69h-6.5v4.1h7.6v3.2H120V59.2h11.8v3.2h-7.7v3.6h6.5V69z"/>
      <path d="M138.4,70.4v5.8h-4.1V59.2h6.8c1.3,0,2.5,0.2,3.5,0.7s1.8,1.2,2.3,2.1s0.8,1.9,0.8,3c0,1.7-0.6,3-1.8,4s-2.8,1.5-4.9,1.5
        H138.4z M138.4,67.3h2.7c0.8,0,1.4-0.2,1.8-0.6s0.6-1,0.6-1.7c0-0.8-0.2-1.4-0.6-1.9s-1-0.7-1.8-0.7h-2.7V67.3z"/>
      <path d="M165.1,59.2v17.1H161V62.3h-3.8l-0.3,5.7c-0.1,2-0.4,3.6-0.8,4.7s-1,2-1.8,2.6s-1.9,0.8-3.2,0.8h-1.1v-3.2l0.6-0.1
        c0.8-0.1,1.4-0.6,1.8-1.5s0.6-2.4,0.7-4.5l0.3-7.9H165.1z"/>
      <path d="M178.5,59.2h4.1v17.1h-4.1V65.5l-6.1,10.8h-4.1V59.2h4.1v10.8L178.5,59.2z"/>
      <path d="M200.2,76.2h-4.1v-7.1h-6.1v7.1h-4.1V59.2h4.1v6.8h6.1v-6.8h4.1V76.2z"/>
    </g>		
	</symbol>

</svg>