<svg display="none" xmlns="http://www.w3.org/2000/svg">
	<symbol id="facebook-outlinefacebook-4" viewBox="0 0 232.6 409">
		<g>
      <path d="M163.9,138.1c15.1,0,29.7,0.1,44.3,0c7.5,0,14.3,2,18.1,8.7c2.2,3.7,3.7,8.4,3.7,12.7c0.4,20.2,0.2,40.5,0.1,60.7
		c-0.1,12.7-8.4,21-21.1,21.1c-13.6,0.1-27.1,0-40.7,0c-1.5,0-2.9,0-4.9,0c0,2,0,3.7,0,5.4c0,46.4,0,92.9-0.1,139.3
		c0,3.8-0.4,7.8-1.9,11.3c-3.4,8-10,11.8-18.7,11.8c-21.3,0.1-42.6,0.1-63.9,0c-12,0-20-7.7-20.8-19.7c-0.1-1.6-0.1-3.2-0.1-4.8
		c0-45.9,0-91.8,0-137.7c0-1.7,0-3.4,0-5.6c-1.8,0-3.2,0-4.6,0c-10.6,0-21.3,0-31.9,0C8.3,241.1,0.1,233,0.1,219.8
		c-0.1-20.2-0.1-40.5,0-60.7c0.1-12.9,8.1-20.9,20.9-21c10.8-0.1,21.6,0,32.4,0c1.4,0,2.9,0,4.8,0c0-2.1-0.1-3.8,0-5.5
		c0.6-16.3-0.2-32.9,2.2-48.9c4.6-31.4,20.5-56.1,49-71.6C123.2,4.5,138,0.2,153.9,0.2c20-0.1,39.9,0.3,59.9-0.2
		c7.9-0.2,16.2,6.5,18,14.2c0.5,2.3,0.8,4.7,0.8,7.1c0.1,18.2,0.1,36.5,0,54.7c0,13.9-8.1,22-22.1,22.1c-11.9,0.1-23.7,0.1-35.5,0.2
		c-1.2,0-2.4,0.1-3.6,0.3c-5.9,1.1-7.3,2.3-7.4,8.4C163.7,117.2,163.9,127.4,163.9,138.1z M24.2,217.2c1.9,0,3.4,0,4.9,0
		c12.9,0,25.8,0,38.7,0c8.9,0,14,5.1,14.4,14.1c0,1.2,0,2.4,0,3.6c0,48.3,0,96.6,0,144.9c0,1.7,0,3.3,0,5c19.4,0,38.1,0,57.2,0
		c0-1.9,0-3.6,0-5.3c0-48.7,0-97.4,0-146.1c0-11.3,4.8-16.1,16-16.1c15.4,0,30.9,0,46.3,0c1.4,0,2.8,0,4.3,0c0-18.6,0-36.7,0-55.1
		c-1.7,0-3.1,0-4.5,0c-15.7,0-31.4,0-47.1,0c-8.8,0-14.6-4.7-14.7-12.9c-0.3-15.1-0.5-30.4,0.6-45.5c1.2-16.8,10.5-26.4,27.1-28.4
		c11.6-1.4,23.4-0.9,35-1.2c2-0.1,3.9,0,6,0c0-17.1,0-33.7,0-50.2c-0.6-0.2-0.9-0.4-1.3-0.4c-17.2,0.1-34.4-0.4-51.5,0.3
		c-17.7,0.7-34,6.1-47.6,18.1c-17.2,15.1-24.4,34.9-25.4,57c-0.7,15.5-0.3,31.1-0.4,46.7c0,11.6-4.9,16.6-16.4,16.6
		c-10.8,0-21.6,0-32.4,0c-3,0-6,0-9.2,0C24.2,180.7,24.2,198.7,24.2,217.2z"/>
    </g>		
	</symbol>

	<symbol id="facebook-4" viewBox="0 0 101 101">
		<g>
			<path d="M77.6,101h-19.6c-2.8,0-5-2.2-5-5v-33.9h11.9v-6.4h-11.8v-13.1c0-4.2,3.4-7.6,7.6-7.6h4.2v-5.5h-7.8c-6.1,0-11.1,5-11.1,11.1v15.1h-11.9v6.5h11.2v33.9c0,2.8-2.2,5-5,5h-16.9c-12.9,0-23.4-10.5-23.4-23.4V23.4C0,10.5,10.5,0,23.4,0h54.1c12.9,0,23.4,10.5,23.4,23.4v54.1c0,12.9-10.5,23.4-23.4,23.4ZM61,93h16.6c8.5,0,15.4-6.9,15.4-15.4V23.4c0-8.5-6.9-15.4-15.4-15.4H23.4c-8.5,0-15.4,6.9-15.4,15.4v54.1c0,8.5,6.9,15.4,15.4,15.4h13.9v-22.9h-6.2c-2.8,0-5-2.2-5-5v-12.5c0-2.8,2.2-5,5-5h6.9v-7.1c0-10.5,8.6-19.1,19.1-19.1h10.8c2.8,0,5,2.2,5,5v11.5c0,2.8-2.2,5-5,5h-6.8v4.6h6.8c2.8,0,5,2.2,5,5v12.4c0,2.8-2.2,5-5,5h-6.8v22.9Z"/>
		</g>		
  </symbol>

	<symbol id="instagram-4" viewBox="0 0 101 101">
		<g>
			<path d="M77.6,101H23.4c-12.9,0-23.4-10.5-23.4-23.4V23.4C0,10.5,10.5,0,23.4,0h54.1c12.9,0,23.4,10.5,23.4,23.4v54.1c0,12.9-10.5,23.4-23.4,23.4ZM23.4,8c-8.5,0-15.4,6.9-15.4,15.4v54.1c0,8.5,6.9,15.4,15.4,15.4h54.1c8.5,0,15.4-6.9,15.4-15.4V23.4c0-8.5-6.9-15.4-15.4-15.4H23.4ZM50.2,78.4c-14.3,0-26-11.7-26-26s11.7-26,26-26,26,11.7,26,26-11.7,26-26,26ZM50.2,34.4c-9.9,0-18,8.1-18,18s8.1,18,18,18,18-8.1,18-18-8.1-18-18-18ZM78.7,31.4c-5,0-9-4-9-9s4-9,9-9,9,4,9,9-4,9-9,9ZM78.7,21.4c-.6,0-1,.4-1,1s.4,1,1,1,1-.4,1-1-.4-1-1-1Z"/>
		</g>		
  </symbol>

	<symbol id="youtube-4" viewBox="0 0 101 101">
		<g>
			<path d="M77.6,101H23.4c-12.9,0-23.4-10.5-23.4-23.4V23.4C0,10.5,10.5,0,23.4,0h54.1c12.9,0,23.4,10.5,23.4,23.4v54.1c0,12.9-10.5,23.4-23.4,23.4ZM23.4,8c-8.5,0-15.4,6.9-15.4,15.4v54.1c0,8.5,6.9,15.4,15.4,15.4h54.1c8.5,0,15.4-6.9,15.4-15.4V23.4c0-8.5-6.9-15.4-15.4-15.4H23.4ZM36.5,70.3c-.9,0-1.8-.3-2.6-.8-1.5-.9-2.3-2.5-2.3-4.2v-29.8c0-1.7.9-3.3,2.3-4.2,1.4-.9,3.2-1.1,4.8-.3l31.7,14.5c1.8.8,2.9,2.5,2.9,4.5,0,2-1.1,3.7-2.8,4.6l-31.7,15.4c-.7.3-1.4.5-2.2.5ZM39.5,40.1v20.4l21.6-10.5-21.6-9.9ZM66.9,52.6s0,0,0,0h0Z"/>
		</g>		
  </symbol>


  <symbol id="facebook-round" viewBox="0 0 595.3 589">
    <g>
      <path d="M0,294.4C0,131.9,133.5,0,297.8,0C462,0,595.4,132.2,595.3,294.8C595.2,457,461.4,589.1,297.2,589
			C133.4,588.9,0,456.7,0,294.4z M24.8,295.1c0.3,147.8,123.8,269.6,273.2,269.4c149.5-0.2,272.6-122.2,272.5-269.9
			C570.4,146,446.6,23.9,296.7,24.5C147.1,25.1,24.5,147.2,24.8,295.1z"/>
		<path d="M257.8,324.3c-20.6,0-38.6,0-57.6,0c0-21.5,0-41.9,0-63.5c18.1,0,36.5,0,57.2,0c0-12-0.3-22.7,0.1-33.4
			c0.5-13.9-0.1-28.2,2.7-41.7c7.6-37.5,34.8-60.4,73.3-61.8c17.1-0.6,34.4,1.2,51.6,2.9c3,0.3,7.7,5.6,7.9,8.9
			c0.9,14.8,0.4,29.6,0.4,46.6c-10.2,0-19.3-0.3-28.4,0.1c-25.9,1-37.6,13.1-37.8,38.8c-0.1,12.6,0,25.1,0,39c21.7,0,41.9,0,63.1,0
			c-3.4,21.9-6.6,42.4-10,64c-17.6,0-34.3,0-53,0c0,26.8,0,52.5,0,78.1c0,25.8,0,51.6,0,78.2c-23.1,0-45.5,0-69.3,0
			C257.8,429.1,257.8,377.7,257.8,324.3z"/>
    </g>
  </symbol>

  	<symbol id="instagram-outline" viewBox="0 0 409 409">
		<g>
      <path d="M305.9,409c-67.6,0-135.2,0-202.9,0c-4.3-0.7-8.7-1.1-12.9-2c-45.2-10.2-74.2-37.6-86.7-82.2C1.7,318.7,1.1,312.3,0,306
			c0-67.6,0-135.2,0-202.8c0.2-1.4,0.5-2.8,0.7-4.2c1.2-11,3.7-21.9,8.4-31.9C29.6,24,63.9,1,111.6,0.4
			c61.9-0.8,123.8-0.2,185.7-0.2c19.4,0,37.9,4.2,54.6,14.1c37.5,22.1,56.7,55.2,56.9,98.6c0.3,61.1,0.2,122.2,0,183.2
			c0,7.7-0.4,15.5-2.1,23c-10.1,45.1-37.6,74-82.1,86.5C318.6,407.3,312.1,407.9,305.9,409z M384.9,204.6c0-30.5,0.1-60.9-0.1-91.4
			c0-6.9-0.5-13.9-2-20.6c-9.6-41.4-43.7-68.4-86.2-68.4c-61.5-0.1-123-0.1-184.4,0.1c-6.6,0-13.4,0.5-19.8,2
			C51,35.9,24,70,24,112.4c-0.1,61.5-0.1,122.9,0.1,184.4c0,6.5,0.5,13.1,1.9,19.4c9,40.8,43.5,68.7,85.5,68.8c62,0.2,124,0,186,0
			c12.5,0,24.7-2.2,36-7.6c33.6-16.3,50.9-43.3,51.4-80.6C385.3,266.1,384.9,235.3,384.9,204.6z"/>
		<path d="M204.5,316.4c-61.4,0.1-111.8-50.2-111.9-111.7c-0.1-61.4,50.2-111.8,111.7-111.9c61.4-0.1,111.8,50.2,111.9,111.7
			C316.3,265.9,266,316.3,204.5,316.4z M292.3,205c0.3-48.2-39.2-87.9-87.6-88.1c-48.1-0.2-87.6,38.9-88.1,87.3
			c-0.5,48.1,38.9,87.9,87.4,88.4C252.1,292.8,291.9,253.4,292.3,205z"/>
		<path d="M318.9,119.2c-18,0-33-15-33-33c0-18,15-33,33-33c17.9,0,33,15.1,33.1,33S336.9,119.1,318.9,119.2z M319.1,77.2
			c-4.7-0.1-9,3.9-9.2,8.7c-0.2,4.9,4.1,9.3,9,9.3c4.7,0,8.9-4.2,9-8.9C328,81.5,323.9,77.3,319.1,77.2z"/>
    </g>		
	</symbol>

  	<symbol id="instagram-outline2" viewBox="0 0 329.14 329.14">
		<g>
      <path d="M329.14,75.71c0,59.03,0,118.06,0,177.08c-1.3,6.14-2.06,12.45-3.98,18.39c-11.19,34.52-42.23,57.17-78.66,57.28
        c-54.42,0.15-108.84,0.08-163.26,0.02c-17.48-0.02-33.59-4.85-47.74-15.2C12.11,296.18,0.65,272.93,0.64,244
        C0.64,191.07,0.61,138.15,0.69,85.23C0.7,79.8,0.96,74.28,1.93,68.96C7.45,38.6,24.69,17.43,53.17,5.84
        C60.48,2.87,68.6,1.89,76.35,0c59.03,0,118.06,0,177.08,0c2.3,0.41,4.61,0.79,6.9,1.23C290.49,6.92,311.6,24,323.22,52.27
        C326.25,59.65,327.22,67.87,329.14,75.71z M301.58,164.26c0.04,0,0.08,0,0.12,0c0-26.73-0.05-53.46,0.03-80.19
        c0.02-8.56-1.13-16.89-4.95-24.58c-10.37-20.89-27.27-31.92-50.64-32c-54.21-0.19-108.42-0.07-162.62-0.03
        c-3.19,0-6.4,0.3-9.57,0.75c-24.88,3.5-45.48,26-45.64,51.2c-0.37,55.92-0.15,111.83-0.18,167.75c0,7.6,1.49,14.93,4.83,21.71
        c10.51,21.29,27.73,32.15,51.5,32.18c53.57,0.08,107.13,0.04,160.7-0.01c3.62,0,7.26-0.28,10.85-0.77
        c24.4-3.35,45.15-26.09,45.48-50.7C301.87,221.14,301.58,192.7,301.58,164.26z"/>
      <path d="M247,164.65c-0.43,45.48-37.68,82.29-82.68,81.71c-45.43-0.59-81.97-37.56-81.54-82.52c0.43-45.5,37.65-82.27,82.68-81.7
        C210.9,82.73,247.43,119.69,247,164.65z M164.94,109.57c-30.22-0.05-54.6,24.26-54.73,54.55c-0.13,30.17,24.16,54.61,54.47,54.81
        c30.26,0.19,54.92-24.38,54.89-54.71C219.54,133.97,195.19,109.62,164.94,109.57z"/>
      <path d="M254.02,95.7c-11.43,0.08-20.59-9.01-20.59-20.43c0.01-11.24,9-20.33,20.28-20.51c11.14-0.18,20.7,9.3,20.69,20.52
        C274.4,86.46,265.25,95.62,254.02,95.7z"/>
    </g>		
	</symbol>

  	<symbol id="youtube-outline" viewBox="0 0 409 309.3">
		<g>
      <path d="M0,118c0.5-8.5,1.1-17,1.6-25.4c0.8-14.2,2.1-28.3,6.4-42c8.9-28,28.2-43.1,57-45.8c18.5-1.7,37.2-2.4,55.8-3.1
        c61.3-2.4,122.6-2.1,183.9,0.7c15.5,0.7,31.2,1.2,46.5,3.5c26.5,4,45,22.7,51.2,49.2c4.6,19.5,5,39.3,5.7,59
        c1.4,41,1.5,82-2.6,122.8c-1.5,15.7-5.6,30.9-15.4,43.8c-10.3,13.5-24.1,21.6-40.8,23c-22.9,2-45.9,3.1-68.9,4
        c-57.6,2.4-115.2,1.4-172.8-0.9c-17.5-0.7-35.1-1.8-52.4-4.6c-26.9-4.5-42.3-21.9-48.9-47.9c-4.4-17.3-4.4-35-5.6-52.6
        c-0.2-3.2-0.5-6.3-0.8-9.5C0,167.5,0,142.7,0,118z M213.3,23.3c-37.6,0.9-66.2,1.4-94.8,2.4c-17.4,0.6-34.8,1.4-52.2,3
        C49.6,30.2,37.5,38.4,31.8,55c-4.1,11.9-5.4,24.1-6.1,36.4c-2.4,42.3-2.6,84.6,0.1,126.8c0.7,10.8,2.5,21.6,4.7,32.3
        c1.4,7,4.3,13.6,9.8,18.8c7.1,6.8,15.9,9.7,25.3,10.6c14,1.4,28.1,2.5,42.2,3.1c64.4,2.6,128.7,3.2,193.1,0.1
        c15.4-0.7,30.9-1.4,46.1-3.2c14.1-1.7,24-9.5,29.3-23.2c5-13,6.2-26.6,7-40.3c2.1-36.3,2.3-72.6,0.7-108.9
        c-0.7-16.3-0.6-32.8-5.4-48.6c-2.5-8.4-5.8-16.2-13.1-21.8c-8.7-6.6-18.8-8.8-29.2-9.2C292.3,26.2,248.3,24.7,213.3,23.3z"/>
		  <path d="M152.5,150.6c0-15.7,0-31.4,0-47.1c0-15.4,12.8-23,26.3-15.6c28.9,15.8,57.8,31.7,86.7,47.5c6.4,3.5,10.4,8.4,10.3,15.8
        c-0.1,7.2-4.2,12-10.4,15.4c-28.9,15.5-57.8,31.1-86.8,46.6c-13.6,7.3-26.2-0.3-26.2-15.8C152.5,181.8,152.5,166.2,152.5,150.6z
        M243.9,150.9c-22.7-12.4-44.8-24.5-67.2-36.8c0,24.5,0,48.4,0,72.9C199.1,174.9,221.1,163.1,243.9,150.9z"/>
    </g>		
	</symbol>

  	<symbol id="youtube-outline2" viewBox="0 0 512 370.9">
		<g>
      <path d="M512,149.7c0,24,0,48,0,72c-0.3,1.8-0.6,3.6-0.8,5.4c-1.4,17.9-2.4,35.9-4.3,53.7c-1.8,17-5.5,33.5-15.5,47.9
        c-15.6,22.2-37.5,33-63.9,34.9c-38.3,2.8-76.7,6-115.1,6.8c-47.9,1-95.9,0.5-143.8-1c-31.7-1-63.5-4-95-7.9
        c-32.2-4-57.7-28.3-64.5-60.1c-3.5-16.5-5-33.5-7-50.4c-1.1-9.4-1.4-18.9-2-28.3c0-23.7,0-47.3,0-71c0.3-3.1,0.6-6.2,0.9-9.3
        c2-20.9,3.2-41.9,6.4-62.6C13.1,42.4,40,15.7,76.4,11c21.8-2.8,43.7-4.9,65.6-6c56.8-2.9,113.6-4.3,170.4-2.3
        c40.3,1.4,80.6,2.3,120.6,8c38.1,5.4,63.2,28.1,71,65.7c3.1,14.8,4.3,30,6,45C511,130.8,511.3,140.3,512,149.7z M268.4,41
        c-44.2,1.2-74.9,1.6-105.5,3.1c-25.6,1.2-51.2,3.3-76.7,5.8c-22.8,2.3-34.9,13.5-39.3,35.9c-2.4,12-3.8,24.4-4.7,36.6
        c-2.8,37.8-3.2,75.6-0.9,113.4c1.2,19.2,3.5,38.5,7,57.4c2.7,15,13.4,24.1,28.1,28.2c4.2,1.2,8.5,2,12.8,2.3
        c37.2,2.4,74.4,6,111.7,6.7c48.6,0.9,97.3,0.2,145.9-1c26.3-0.6,52.5-3.2,78.7-5.8c24.5-2.5,36.8-14.3,40.4-38.8
        c2.4-16.3,4.5-32.7,4.9-49.2c0.8-33,1-66,0-99c-0.6-18.9-3.4-37.8-6.9-56.4c-2.9-15.4-13.7-24.9-29-28.4c-8.7-2-17.7-3.5-26.6-4
        C357,45.2,305.9,42.8,268.4,41z"/>
		  <path d="M345,186.7c-47.1,27.2-93.1,53.9-139.7,80.8c0-54.1,0-107.5,0-161.7C251.8,132.8,297.9,159.5,345,186.7z"/>
    </g>		
	</symbol>
</svg>

		