<svg display="none" xmlns="http://www.w3.org/2000/svg">

	<symbol id="drop-down" viewBox="0 0 384.2 277.9">
		<g>
      <path d="M169.5,214.7c12.5,12.5,32.8,12.5,45.3,0l160-160c12.5-12.5,12.5-32.8,0-45.3s-32.8-12.5-45.3,0L192.1,146.8L54.7,9.5
        C42.2-3,21.9-3,9.4,9.5s-12.5,32.8,0,45.3l160,160L169.5,214.7z"/>
    </g>		
	</symbol>

  <symbol id="dark-mode-4" viewBox="0 0 95.4 96.7">
		<g>
      <path d="M50,96.7c-11.6,0-22.7-4-31.8-11.5C8.2,76.9,1.9,65.4.4,52.7-2.3,30.3,10.4,8.7,31.4.3c1.7-.7,3.7-.2,5,1.2,1.2,1.4,1.4,3.5.5,5.1-4.6,7.9-6.4,16.9-5,25.9,2.9,19.8,20.7,34.8,40.7,34.2,5.8-.2,11.4-1.6,16.6-4.1,1.7-.8,3.7-.5,5.1.8,1.3,1.3,1.7,3.3.9,5-7.8,16.1-23.7,26.9-41.6,28.1-1.1,0-2.3.1-3.4.1ZM25.5,12.6C13.3,21.4,6.5,36.3,8.3,51.7c2.6,21.8,22.6,38.4,44.6,36.9,11.6-.8,22.2-6.4,29.4-15.1-3.1.7-6.4,1.2-9.6,1.2-24.3.7-45.3-16.9-48.8-41.1-1-7.2-.5-14.3,1.6-21.1ZM92.6,69.8h0s0,0,0,0c0,0,0,0,0,0Z"/>
    </g>		
	</symbol>

  <symbol id="light-mode-4" viewBox="0 0 98.1 98.1">
		<g>
      <path d="M49,70.9c-11.8,0-21.4-9.6-21.4-21.4s9.6-21.4,21.4-21.4,21.4,9.6,21.4,21.4-9.6,21.4-21.4,21.4ZM49,36.1c-7.4,0-13.4,6-13.4,13.4s6,13.4,13.4,13.4,13.4-6,13.4-13.4-6-13.4-13.4-13.4ZM53,18.1V4C53,1.9,51.2,0,49,0s-4,1.8-4,4v14.1c0,2.1,1.8,4.1,4,4s4-1.8,4-4h0ZM53,94.1v-14.1c0-2.1-1.8-4.1-4-4s-4,1.8-4,4v14.1c0,2.1,1.8,4.1,4,4s4-1.8,4-4h0ZM18.1,45.5c-4.1,0-8.2,0-12.3,0h-1.7c-2.1,0-4.1,1.8-4,4s1.8,4,4,4c4.1,0,8.2,0,12.3,0h1.7c2.1,0,4.1-1.8,4-4s-1.8-4-4-4h0ZM94.1,45.5c-4.1,0-8.2,0-12.3,0h-1.7c-2.1,0-4.1,1.8-4,4s1.8,4,4,4c4.1,0,8.2,0,12.3,0h1.7c2.1,0,4.1-1.8,4-4s-1.8-4-4-4h0ZM30,24.8c-2.9-2.9-5.8-5.8-8.7-8.7l-1.2-1.2c-1.5-1.5-4.2-1.6-5.7,0s-1.6,4.1,0,5.7c2.9,2.9,5.8,5.8,8.7,8.7l1.2,1.2c1.5,1.5,4.2,1.6,5.7,0s1.6-4.1,0-5.7h0ZM83.7,78.5c-2.9-2.9-5.8-5.8-8.7-8.7s-.8-.8-1.2-1.2c-1.5-1.5-4.2-1.6-5.7,0s-1.6,4.1,0,5.7c2.9,2.9,5.8,5.8,8.7,8.7s.8.8,1.2,1.2c1.5,1.5,4.2,1.6,5.7,0s1.6-4.1,0-5.7h0ZM73.8,30.4c2.9-2.9,5.8-5.8,8.7-8.7l1.2-1.2c1.5-1.5,1.6-4.2,0-5.7s-4.1-1.6-5.7,0c-2.9,2.9-5.8,5.8-8.7,8.7l-1.2,1.2c-1.5,1.5-1.6,4.2,0,5.7s4.1,1.6,5.7,0h0ZM20,84.2c2.9-2.9,5.8-5.8,8.7-8.7l1.2-1.2c1.5-1.5,1.6-4.2,0-5.7s-4.1-1.6-5.7,0c-2.9,2.9-5.8,5.8-8.7,8.7l-1.2,1.2c-1.5,1.5-1.6,4.2,0,5.7s4.1,1.6,5.7,0h0Z"/>
    </g>		
	</symbol>

  <symbol id="language" viewBox="0 0 20 20">
		<g>
      <path d="M10,20c-1.4,0-2.7-0.3-3.9-0.8c-1.2-0.5-2.3-1.2-3.2-2.1s-1.6-2-2.2-3.2S0,11.4,0,10c0-1.4,0.3-2.7,0.8-3.9S2,3.8,2.9,2.9
        s2-1.6,3.2-2.2S8.6,0,10,0c1.4,0,2.7,0.3,3.9,0.8s2.3,1.2,3.2,2.2s1.6,2,2.1,3.2C19.7,7.3,20,8.6,20,10c0,1.4-0.3,2.7-0.8,3.9
        c-0.5,1.2-1.2,2.3-2.1,3.2s-2,1.6-3.2,2.1C12.7,19.7,11.4,20,10,20z M10,18c0.4-0.6,0.8-1.2,1.1-1.9c0.3-0.7,0.6-1.3,0.8-2.1H8.1
        c0.2,0.7,0.5,1.4,0.8,2.1C9.2,16.7,9.6,17.4,10,18z M7.4,17.6c-0.3-0.6-0.6-1.1-0.8-1.7c-0.2-0.6-0.4-1.2-0.6-1.8h-3
        c0.5,0.8,1.1,1.6,1.8,2.2C5.6,16.8,6.5,17.2,7.4,17.6z M12.6,17.6c0.9-0.3,1.8-0.8,2.5-1.4c0.7-0.6,1.3-1.3,1.8-2.2h-2.9
        c-0.1,0.6-0.3,1.2-0.6,1.8C13.2,16.4,12.9,17,12.6,17.6z M2.2,12h3.4c-0.1-0.3-0.1-0.7-0.1-1c0-0.3,0-0.7,0-1c0-0.3,0-0.7,0-1
        c0-0.3,0.1-0.7,0.1-1H2.2C2.2,8.3,2.1,8.7,2.1,9S2,9.7,2,10c0,0.4,0,0.7,0.1,1C2.1,11.3,2.2,11.7,2.2,12z M7.7,12h4.7
        c0.1-0.3,0.1-0.7,0.1-1c0-0.3,0-0.7,0-1c0-0.3,0-0.7,0-1c0-0.3-0.1-0.7-0.1-1H7.7C7.6,8.3,7.6,8.7,7.5,9c0,0.3,0,0.7,0,1
        c0,0.4,0,0.7,0,1C7.6,11.3,7.6,11.7,7.7,12z M14.4,12h3.4c0.1-0.3,0.1-0.7,0.2-1c0-0.3,0.1-0.7,0.1-1c0-0.3,0-0.7-0.1-1
        c0-0.3-0.1-0.7-0.2-1h-3.4c0.1,0.3,0.1,0.7,0.1,1c0,0.3,0,0.7,0,1c0,0.4,0,0.7,0,1C14.4,11.3,14.4,11.7,14.4,12z M13.9,6h2.9
        c-0.5-0.8-1.1-1.6-1.8-2.2c-0.7-0.6-1.6-1.1-2.5-1.4c0.3,0.5,0.6,1.1,0.8,1.7C13.6,4.8,13.8,5.4,13.9,6z M8.1,6h3.8
        c-0.2-0.7-0.5-1.4-0.8-2.1C10.8,3.3,10.4,2.7,10,2C9.6,2.7,9.2,3.3,8.9,3.9S8.3,5.3,8.1,6z M3.1,6h3c0.2-0.6,0.3-1.2,0.6-1.8
        S7.1,3,7.4,2.5C6.5,2.8,5.6,3.2,4.9,3.8S3.6,5.2,3.1,6z"/>
    </g>		
	</symbol>

  <symbol id="credit-card" viewBox="0 0 20 16">
		<g>
      <path d="M20,2v12c0,0.6-0.2,1-0.6,1.4C19,15.8,18.6,16,18,16H2c-0.5,0-1-0.2-1.4-0.6C0.2,15,0,14.6,0,14V2c0-0.5,0.2-1,0.6-1.4
        S1.5,0,2,0h16c0.6,0,1,0.2,1.4,0.6S20,1.5,20,2z M2,4h16V2H2V4z M2,8v6h16V8H2z M2,14V2V14z"/>      
    </g>		
	</symbol>

</svg>