<svg display="none" xmlns="http://www.w3.org/2000/svg">
	<symbol id="drop-down" viewBox="0 0 384.2 277.9">
		<g>
      <path d="M169.5,214.7c12.5,12.5,32.8,12.5,45.3,0l160-160c12.5-12.5,12.5-32.8,0-45.3s-32.8-12.5-45.3,0L192.1,146.8L54.7,9.5
        C42.2-3,21.9-3,9.4,9.5s-12.5,32.8,0,45.3l160,160L169.5,214.7z"/>
    </g>		
	</symbol>

  <symbol id="dark-mode" viewBox="0 0 17.9 18">
		<g>
      <path d="M9,18c-2.5,0-4.6-0.9-6.4-2.6S0,11.5,0,9s0.9-4.6,2.6-6.4S6.5,0,9,0c0.2,0,0.5,0,0.7,0c0.2,0,0.4,0,0.7,0.1
      C9.7,0.6,9.1,1.2,8.7,2C8.3,2.8,8.1,3.6,8.1,4.5c0,1.5,0.5,2.8,1.6,3.8s2.3,1.6,3.8,1.6c0.9,0,1.8-0.2,2.5-0.6
      c0.8-0.4,1.4-1,1.9-1.6c0,0.2,0.1,0.4,0.1,0.7c0,0.2,0,0.5,0,0.7c0,2.5-0.9,4.6-2.6,6.4S11.5,18,9,18z M9,16c1.5,0,2.8-0.4,3.9-1.2
      s2-1.9,2.6-3.2c-0.3,0.1-0.7,0.2-1,0.2c-0.3,0.1-0.7,0.1-1,0.1c-2.1,0-3.8-0.7-5.2-2.2S6.1,6.6,6.1,4.5c0-0.3,0-0.7,0.1-1
      c0-0.3,0.1-0.7,0.2-1C5.1,3,4,3.9,3.2,5.1S2,7.5,2,9c0,1.9,0.7,3.6,2.1,4.9S7.1,16,9,16z"/>
   </g>		
	</symbol>

  <symbol id="light-mode" viewBox="0 0 22 22">
		<g>
      <path d="M11,14c0.8,0,1.5-0.3,2.1-0.9c0.6-0.6,0.9-1.3,0.9-2.1c0-0.8-0.3-1.5-0.9-2.1S11.8,8,11,8S9.5,8.3,8.9,8.9
        C8.3,9.5,8,10.2,8,11c0,0.8,0.3,1.5,0.9,2.1C9.5,13.7,10.2,14,11,14z M11,16c-1.4,0-2.6-0.5-3.5-1.5S6,12.4,6,11
        c0-1.4,0.5-2.6,1.5-3.5S9.6,6,11,6s2.6,0.5,3.5,1.5S16,9.6,16,11c0,1.4-0.5,2.6-1.5,3.5S12.4,16,11,16z M1,12
        c-0.3,0-0.5-0.1-0.7-0.3C0.1,11.5,0,11.3,0,11s0.1-0.5,0.3-0.7C0.5,10.1,0.7,10,1,10h2c0.3,0,0.5,0.1,0.7,0.3C3.9,10.5,4,10.7,4,11
        s-0.1,0.5-0.3,0.7C3.5,11.9,3.3,12,3,12H1z M19,12c-0.3,0-0.5-0.1-0.7-0.3C18.1,11.5,18,11.3,18,11s0.1-0.5,0.3-0.7
        c0.2-0.2,0.4-0.3,0.7-0.3h2c0.3,0,0.5,0.1,0.7,0.3c0.2,0.2,0.3,0.4,0.3,0.7s-0.1,0.5-0.3,0.7C21.5,11.9,21.3,12,21,12H19z M11,4
        c-0.3,0-0.5-0.1-0.7-0.3C10.1,3.5,10,3.3,10,3V1c0-0.3,0.1-0.5,0.3-0.7S10.7,0,11,0s0.5,0.1,0.7,0.3S12,0.7,12,1v2
        c0,0.3-0.1,0.5-0.3,0.7C11.5,3.9,11.3,4,11,4z M11,22c-0.3,0-0.5-0.1-0.7-0.3C10.1,21.5,10,21.3,10,21v-2c0-0.3,0.1-0.5,0.3-0.7
        S10.7,18,11,18s0.5,0.1,0.7,0.3S12,18.7,12,19v2c0,0.3-0.1,0.5-0.3,0.7C11.5,21.9,11.3,22,11,22z M4.7,6.1L3.6,5
        C3.4,4.8,3.3,4.6,3.3,4.3s0.1-0.5,0.3-0.7C3.8,3.4,4,3.3,4.3,3.3S4.8,3.4,5,3.6l1.1,1.1c0.2,0.2,0.3,0.4,0.3,0.7
        c0,0.3-0.1,0.5-0.3,0.7C5.9,6.2,5.6,6.3,5.4,6.3S4.8,6.2,4.7,6.1z M17,18.4l-1.1-1.1c-0.2-0.2-0.3-0.4-0.3-0.7s0.1-0.5,0.3-0.7
        c0.2-0.2,0.4-0.3,0.7-0.3c0.3,0,0.5,0.1,0.7,0.3l1.1,1.1c0.2,0.2,0.3,0.4,0.3,0.7c0,0.3-0.1,0.5-0.3,0.7c-0.2,0.2-0.4,0.3-0.7,0.3
        S17.2,18.6,17,18.4z M15.9,6.1c-0.2-0.2-0.3-0.4-0.3-0.7c0-0.3,0.1-0.5,0.3-0.7L17,3.6c0.2-0.2,0.4-0.3,0.7-0.3
        c0.3,0,0.5,0.1,0.7,0.3c0.2,0.2,0.3,0.4,0.3,0.7S18.6,4.8,18.4,5l-1.1,1.1c-0.2,0.2-0.4,0.3-0.7,0.3C16.4,6.3,16.1,6.2,15.9,6.1z
        M3.6,18.4c-0.2-0.2-0.3-0.4-0.3-0.7s0.1-0.5,0.3-0.7l1.1-1.1c0.2-0.2,0.4-0.3,0.7-0.3s0.5,0.1,0.7,0.3c0.2,0.2,0.3,0.4,0.3,0.7
        s-0.1,0.5-0.3,0.7L5,18.4c-0.2,0.2-0.4,0.3-0.7,0.3S3.8,18.6,3.6,18.4z"/>
    </g>		
	</symbol>

  <symbol id="search" viewBox="0 0 18 18">
		<g>
      <path d="M16.6,18l-6.3-6.3c-0.5,0.4-1.1,0.7-1.7,1C7.9,12.9,7.2,13,6.5,13c-1.8,0-3.4-0.6-4.6-1.9S0,8.3,0,6.5s0.6-3.4,1.9-4.6
        S4.7,0,6.5,0s3.4,0.6,4.6,1.9S13,4.7,13,6.5c0,0.7-0.1,1.4-0.3,2.1c-0.2,0.7-0.6,1.2-1,1.7l6.3,6.3L16.6,18z M6.5,11
        c1.2,0,2.3-0.4,3.2-1.3S11,7.8,11,6.5s-0.4-2.3-1.3-3.2S7.8,2,6.5,2S4.2,2.4,3.3,3.3S2,5.2,2,6.5s0.4,2.3,1.3,3.2S5.2,11,6.5,11z"/>
    </g>		
	</symbol>

  <symbol id="language" viewBox="0 0 20 20">
		<g>
      <path d="M10,20c-1.4,0-2.7-0.3-3.9-0.8c-1.2-0.5-2.3-1.2-3.2-2.1s-1.6-2-2.2-3.2S0,11.4,0,10c0-1.4,0.3-2.7,0.8-3.9S2,3.8,2.9,2.9
        s2-1.6,3.2-2.2S8.6,0,10,0c1.4,0,2.7,0.3,3.9,0.8s2.3,1.2,3.2,2.2s1.6,2,2.1,3.2C19.7,7.3,20,8.6,20,10c0,1.4-0.3,2.7-0.8,3.9
        c-0.5,1.2-1.2,2.3-2.1,3.2s-2,1.6-3.2,2.1C12.7,19.7,11.4,20,10,20z M10,18c0.4-0.6,0.8-1.2,1.1-1.9c0.3-0.7,0.6-1.3,0.8-2.1H8.1
        c0.2,0.7,0.5,1.4,0.8,2.1C9.2,16.7,9.6,17.4,10,18z M7.4,17.6c-0.3-0.6-0.6-1.1-0.8-1.7c-0.2-0.6-0.4-1.2-0.6-1.8h-3
        c0.5,0.8,1.1,1.6,1.8,2.2C5.6,16.8,6.5,17.2,7.4,17.6z M12.6,17.6c0.9-0.3,1.8-0.8,2.5-1.4c0.7-0.6,1.3-1.3,1.8-2.2h-2.9
        c-0.1,0.6-0.3,1.2-0.6,1.8C13.2,16.4,12.9,17,12.6,17.6z M2.2,12h3.4c-0.1-0.3-0.1-0.7-0.1-1c0-0.3,0-0.7,0-1c0-0.3,0-0.7,0-1
        c0-0.3,0.1-0.7,0.1-1H2.2C2.2,8.3,2.1,8.7,2.1,9S2,9.7,2,10c0,0.4,0,0.7,0.1,1C2.1,11.3,2.2,11.7,2.2,12z M7.7,12h4.7
        c0.1-0.3,0.1-0.7,0.1-1c0-0.3,0-0.7,0-1c0-0.3,0-0.7,0-1c0-0.3-0.1-0.7-0.1-1H7.7C7.6,8.3,7.6,8.7,7.5,9c0,0.3,0,0.7,0,1
        c0,0.4,0,0.7,0,1C7.6,11.3,7.6,11.7,7.7,12z M14.4,12h3.4c0.1-0.3,0.1-0.7,0.2-1c0-0.3,0.1-0.7,0.1-1c0-0.3,0-0.7-0.1-1
        c0-0.3-0.1-0.7-0.2-1h-3.4c0.1,0.3,0.1,0.7,0.1,1c0,0.3,0,0.7,0,1c0,0.4,0,0.7,0,1C14.4,11.3,14.4,11.7,14.4,12z M13.9,6h2.9
        c-0.5-0.8-1.1-1.6-1.8-2.2c-0.7-0.6-1.6-1.1-2.5-1.4c0.3,0.5,0.6,1.1,0.8,1.7C13.6,4.8,13.8,5.4,13.9,6z M8.1,6h3.8
        c-0.2-0.7-0.5-1.4-0.8-2.1C10.8,3.3,10.4,2.7,10,2C9.6,2.7,9.2,3.3,8.9,3.9S8.3,5.3,8.1,6z M3.1,6h3c0.2-0.6,0.3-1.2,0.6-1.8
        S7.1,3,7.4,2.5C6.5,2.8,5.6,3.2,4.9,3.8S3.6,5.2,3.1,6z"/>
    </g>		
	</symbol>

  <symbol id="credit-card" viewBox="0 0 20 16">
		<g>
      <path d="M20,2v12c0,0.6-0.2,1-0.6,1.4C19,15.8,18.6,16,18,16H2c-0.5,0-1-0.2-1.4-0.6C0.2,15,0,14.6,0,14V2c0-0.5,0.2-1,0.6-1.4
        S1.5,0,2,0h16c0.6,0,1,0.2,1.4,0.6S20,1.5,20,2z M2,4h16V2H2V4z M2,8v6h16V8H2z M2,14V2V14z"/>      
    </g>		
	</symbol>


</svg>